<svg height="2318" width="720" xmlns="http://www.w3.org/2000/svg">
<rect height="2318" fill="#555" width="720"></rect>
<text fill="#7f7" font-family="Courier New" font-size="12" xml:space="preserve">
<tspan x="10" y="26">150 megabytes installed</tspan>
<tspan x="10" y="42"></tspan>
<tspan x="10" y="58">node_modules</tspan>
<tspan x="10" y="74">└─┬ realm@1.2.0 </tspan>
<tspan x="10" y="90">  ├─┬ extract-zip@1.6.0 </tspan>
<tspan x="10" y="106">  │ ├─┬ concat-stream@1.5.0 </tspan>
<tspan x="10" y="122">  │ │ ├── inherits@2.0.3 </tspan>
<tspan x="10" y="138">  │ │ ├─┬ readable-stream@2.0.6 </tspan>
<tspan x="10" y="154">  │ │ │ ├── core-util-is@1.0.2 </tspan>
<tspan x="10" y="170">  │ │ │ ├── isarray@1.0.0 </tspan>
<tspan x="10" y="186">  │ │ │ ├── process-nextick-args@1.0.7 </tspan>
<tspan x="10" y="202">  │ │ │ ├── string_decoder@0.10.31 </tspan>
<tspan x="10" y="218">  │ │ │ └── util-deprecate@1.0.2 </tspan>
<tspan x="10" y="234">  │ │ └── typedarray@0.0.6 </tspan>
<tspan x="10" y="250">  │ ├── debug@0.7.4 </tspan>
<tspan x="10" y="266">  │ ├─┬ mkdirp@0.5.0 </tspan>
<tspan x="10" y="282">  │ │ └── minimist@0.0.8 </tspan>
<tspan x="10" y="298">  │ └─┬ yauzl@2.4.1 </tspan>
<tspan x="10" y="314">  │   └─┬ fd-slicer@1.0.1 </tspan>
<tspan x="10" y="330">  │     └── pend@1.2.0 </tspan>
<tspan x="10" y="346">  ├── ini@1.3.4 </tspan>
<tspan x="10" y="362">  ├── nan@2.6.2 </tspan>
<tspan x="10" y="378">  ├─┬ node-fetch@1.6.3 </tspan>
<tspan x="10" y="394">  │ ├─┬ encoding@0.1.12 </tspan>
<tspan x="10" y="410">  │ │ └── iconv-lite@0.4.15 </tspan>
<tspan x="10" y="426">  │ └── is-stream@1.1.0 </tspan>
<tspan x="10" y="442">  ├─┬ node-pre-gyp@0.6.34 </tspan>
<tspan x="10" y="458">  │ ├── mkdirp@0.5.1 </tspan>
<tspan x="10" y="474">  │ ├─┬ nopt@4.0.1 </tspan>
<tspan x="10" y="490">  │ │ ├── abbrev@1.1.0 </tspan>
<tspan x="10" y="506">  │ │ └─┬ osenv@0.1.4 </tspan>
<tspan x="10" y="522">  │ │   ├── os-homedir@1.0.2 </tspan>
<tspan x="10" y="538">  │ │   └── os-tmpdir@1.0.2 </tspan>
<tspan x="10" y="554">  │ ├─┬ npmlog@4.0.2 </tspan>
<tspan x="10" y="570">  │ │ ├─┬ are-we-there-yet@1.1.4 </tspan>
<tspan x="10" y="586">  │ │ │ └── delegates@1.0.0 </tspan>
<tspan x="10" y="602">  │ │ ├── console-control-strings@1.1.0 </tspan>
<tspan x="10" y="618">  │ │ ├─┬ gauge@2.7.4 </tspan>
<tspan x="10" y="634">  │ │ │ ├── aproba@1.1.1 </tspan>
<tspan x="10" y="650">  │ │ │ ├── has-unicode@2.0.1 </tspan>
<tspan x="10" y="666">  │ │ │ ├── object-assign@4.1.1 </tspan>
<tspan x="10" y="682">  │ │ │ ├── signal-exit@3.0.2 </tspan>
<tspan x="10" y="698">  │ │ │ ├─┬ string-width@1.0.2 </tspan>
<tspan x="10" y="714">  │ │ │ │ ├── code-point-at@1.1.0 </tspan>
<tspan x="10" y="730">  │ │ │ │ └─┬ is-fullwidth-code-point@1.0.0 </tspan>
<tspan x="10" y="746">  │ │ │ │   └── number-is-nan@1.0.1 </tspan>
<tspan x="10" y="762">  │ │ │ ├─┬ strip-ansi@3.0.1 </tspan>
<tspan x="10" y="778">  │ │ │ │ └── ansi-regex@2.1.1 </tspan>
<tspan x="10" y="794">  │ │ │ └── wide-align@1.1.0 </tspan>
<tspan x="10" y="810">  │ │ └── set-blocking@2.0.0 </tspan>
<tspan x="10" y="826">  │ ├─┬ rc@1.2.1 </tspan>
<tspan x="10" y="842">  │ │ ├── deep-extend@0.4.1 </tspan>
<tspan x="10" y="858">  │ │ ├── minimist@1.2.0 </tspan>
<tspan x="10" y="874">  │ │ └── strip-json-comments@2.0.1 </tspan>
<tspan x="10" y="890">  │ ├─┬ rimraf@2.6.1 </tspan>
<tspan x="10" y="906">  │ │ └─┬ glob@7.1.1 </tspan>
<tspan x="10" y="922">  │ │   ├── fs.realpath@1.0.0 </tspan>
<tspan x="10" y="938">  │ │   ├── inflight@1.0.6 </tspan>
<tspan x="10" y="954">  │ │   ├─┬ minimatch@3.0.3 </tspan>
<tspan x="10" y="970">  │ │   │ └─┬ brace-expansion@1.1.7 </tspan>
<tspan x="10" y="986">  │ │   │   ├── balanced-match@0.4.2 </tspan>
<tspan x="10" y="1002">  │ │   │   └── concat-map@0.0.1 </tspan>
<tspan x="10" y="1018">  │ │   └── path-is-absolute@1.0.1 </tspan>
<tspan x="10" y="1034">  │ ├── semver@5.3.0 </tspan>
<tspan x="10" y="1050">  │ ├─┬ tar@2.2.1 </tspan>
<tspan x="10" y="1066">  │ │ ├── block-stream@0.0.9 </tspan>
<tspan x="10" y="1082">  │ │ └─┬ fstream@1.0.11 </tspan>
<tspan x="10" y="1098">  │ │   └── graceful-fs@4.1.11 </tspan>
<tspan x="10" y="1114">  │ └─┬ tar-pack@3.4.0 </tspan>
<tspan x="10" y="1130">  │   ├─┬ debug@2.6.4 </tspan>
<tspan x="10" y="1146">  │   │ └── ms@0.7.3 </tspan>
<tspan x="10" y="1162">  │   ├── fstream-ignore@1.0.5 </tspan>
<tspan x="10" y="1178">  │   ├─┬ once@1.4.0 </tspan>
<tspan x="10" y="1194">  │   │ └── wrappy@1.0.2 </tspan>
<tspan x="10" y="1210">  │   ├─┬ readable-stream@2.2.9 </tspan>
<tspan x="10" y="1226">  │   │ ├── buffer-shims@1.0.0 </tspan>
<tspan x="10" y="1242">  │   │ └── string_decoder@1.0.0 </tspan>
<tspan x="10" y="1258">  │   └── uid-number@0.0.6 </tspan>
<tspan x="10" y="1274">  ├─┬ request@2.81.0 </tspan>
<tspan x="10" y="1290">  │ ├── aws-sign2@0.6.0 </tspan>
<tspan x="10" y="1306">  │ ├── aws4@1.6.0 </tspan>
<tspan x="10" y="1322">  │ ├── caseless@0.12.0 </tspan>
<tspan x="10" y="1338">  │ ├─┬ combined-stream@1.0.5 </tspan>
<tspan x="10" y="1354">  │ │ └── delayed-stream@1.0.0 </tspan>
<tspan x="10" y="1370">  │ ├── extend@3.0.0 </tspan>
<tspan x="10" y="1386">  │ ├── forever-agent@0.6.1 </tspan>
<tspan x="10" y="1402">  │ ├─┬ form-data@2.1.4 </tspan>
<tspan x="10" y="1418">  │ │ └── asynckit@0.4.0 </tspan>
<tspan x="10" y="1434">  │ ├─┬ har-validator@4.2.1 </tspan>
<tspan x="10" y="1450">  │ │ ├─┬ ajv@4.11.7 </tspan>
<tspan x="10" y="1466">  │ │ │ ├── co@4.6.0 </tspan>
<tspan x="10" y="1482">  │ │ │ └─┬ json-stable-stringify@1.0.1 </tspan>
<tspan x="10" y="1498">  │ │ │   └── jsonify@0.0.0 </tspan>
<tspan x="10" y="1514">  │ │ └── har-schema@1.0.5 </tspan>
<tspan x="10" y="1530">  │ ├─┬ hawk@3.1.3 </tspan>
<tspan x="10" y="1546">  │ │ ├── boom@2.10.1 </tspan>
<tspan x="10" y="1562">  │ │ ├── cryptiles@2.0.5 </tspan>
<tspan x="10" y="1578">  │ │ ├── hoek@2.16.3 </tspan>
<tspan x="10" y="1594">  │ │ └── sntp@1.0.9 </tspan>
<tspan x="10" y="1610">  │ ├─┬ http-signature@1.1.1 </tspan>
<tspan x="10" y="1626">  │ │ ├── assert-plus@0.2.0 </tspan>
<tspan x="10" y="1642">  │ │ ├─┬ jsprim@1.4.0 </tspan>
<tspan x="10" y="1658">  │ │ │ ├── assert-plus@1.0.0 </tspan>
<tspan x="10" y="1674">  │ │ │ ├── extsprintf@1.0.2 </tspan>
<tspan x="10" y="1690">  │ │ │ ├── json-schema@0.2.3 </tspan>
<tspan x="10" y="1706">  │ │ │ └── verror@1.3.6 </tspan>
<tspan x="10" y="1722">  │ │ └─┬ sshpk@1.13.0 </tspan>
<tspan x="10" y="1738">  │ │   ├── asn1@0.2.3 </tspan>
<tspan x="10" y="1754">  │ │   ├── assert-plus@1.0.0 </tspan>
<tspan x="10" y="1770">  │ │   ├── bcrypt-pbkdf@1.0.1 </tspan>
<tspan x="10" y="1786">  │ │   ├─┬ dashdash@1.14.1 </tspan>
<tspan x="10" y="1802">  │ │   │ └── assert-plus@1.0.0 </tspan>
<tspan x="10" y="1818">  │ │   ├── ecc-jsbn@0.1.1 </tspan>
<tspan x="10" y="1834">  │ │   ├─┬ getpass@0.1.6 </tspan>
<tspan x="10" y="1850">  │ │   │ └── assert-plus@1.0.0 </tspan>
<tspan x="10" y="1866">  │ │   ├── jodid25519@1.0.2 </tspan>
<tspan x="10" y="1882">  │ │   ├── jsbn@0.1.1 </tspan>
<tspan x="10" y="1898">  │ │   └── tweetnacl@0.14.5 </tspan>
<tspan x="10" y="1914">  │ ├── is-typedarray@1.0.0 </tspan>
<tspan x="10" y="1930">  │ ├── isstream@0.1.2 </tspan>
<tspan x="10" y="1946">  │ ├── json-stringify-safe@5.0.1 </tspan>
<tspan x="10" y="1962">  │ ├─┬ mime-types@2.1.15 </tspan>
<tspan x="10" y="1978">  │ │ └── mime-db@1.27.0 </tspan>
<tspan x="10" y="1994">  │ ├── oauth-sign@0.8.2 </tspan>
<tspan x="10" y="2010">  │ ├── performance-now@0.2.0 </tspan>
<tspan x="10" y="2026">  │ ├── qs@6.4.0 </tspan>
<tspan x="10" y="2042">  │ ├── safe-buffer@5.0.1 </tspan>
<tspan x="10" y="2058">  │ ├── stringstream@0.0.5 </tspan>
<tspan x="10" y="2074">  │ ├─┬ tough-cookie@2.3.2 </tspan>
<tspan x="10" y="2090">  │ │ └── punycode@1.4.1 </tspan>
<tspan x="10" y="2106">  │ ├── tunnel-agent@0.6.0 </tspan>
<tspan x="10" y="2122">  │ └── uuid@3.0.1 </tspan>
<tspan x="10" y="2138">  ├─┬ sync-request@3.0.1 </tspan>
<tspan x="10" y="2154">  │ ├── http-response-object@1.1.0 </tspan>
<tspan x="10" y="2170">  │ └─┬ then-request@2.2.0 </tspan>
<tspan x="10" y="2186">  │   ├── caseless@0.11.0 </tspan>
<tspan x="10" y="2202">  │   ├─┬ http-basic@2.5.1 </tspan>
<tspan x="10" y="2218">  │   │ └── caseless@0.11.0 </tspan>
<tspan x="10" y="2234">  │   └─┬ promise@7.1.1 </tspan>
<tspan x="10" y="2250">  │     └── asap@2.0.5 </tspan>
<tspan x="10" y="2266">  └─┬ url-parse@1.1.8 </tspan>
<tspan x="10" y="2282">    ├── querystringify@0.0.4 </tspan>
<tspan x="10" y="2298">    └── requires-port@1.0.0</tspan>
</text>
</svg>
